<svg width="80" height="78" viewBox="0 0 80 78" fill="none" xmlns="http://www.w3.org/2000/svg">
<g filter="url(#filter0_d)">
<path d="M11 34C11 20.1929 22.1929 9 36 9C49.8071 9 61 20.1929 61 34C61 47.8071 49.8071 59 36 59C22.1929 59 11 47.8071 11 34Z" fill="#AF8D51"/>
</g>
<path d="M34.4375 23.0625L26.625 29.3125H20.375V38.6875H26.625L34.4375 44.9375V23.0625Z" stroke="#60502F" stroke-width="2" stroke-linecap="round" stroke-linejoin="round"/>
<path d="M47.0469 22.9531C49.9761 25.8832 51.6217 29.8568 51.6217 34C51.6217 38.1432 49.9761 42.1168 47.0469 45.0469M41.5312 28.4688C42.9959 29.9338 43.8186 31.9206 43.8186 33.9922C43.8186 36.0638 42.9959 38.0506 41.5312 39.5156" stroke="#60502F" stroke-width="2" stroke-linecap="round" stroke-linejoin="round"/>
<defs>
<filter id="filter0_d" x="0" y="-2" width="80" height="80" filterUnits="userSpaceOnUse" color-interpolation-filters="sRGB">
<feFlood flood-opacity="0" result="BackgroundImageFix"/>
<feColorMatrix in="SourceAlpha" type="matrix" values="0 0 0 0 0 0 0 0 0 0 0 0 0 0 0 0 0 0 127 0"/>
<feOffset dx="4" dy="4"/>
<feGaussianBlur stdDeviation="7.5"/>
<feColorMatrix type="matrix" values="0 0 0 0 0 0 0 0 0 0 0 0 0 0 0 0 0 0 0.25 0"/>
<feBlend mode="normal" in2="BackgroundImageFix" result="effect1_dropShadow"/>
<feBlend mode="normal" in="SourceGraphic" in2="effect1_dropShadow" result="shape"/>
</filter>
</defs>
</svg>
