<svg width="80" height="80" viewBox="0 0 80 80" fill="none" xmlns="http://www.w3.org/2000/svg">
<g filter="url(#filter0_d)">
<path d="M11 36C11 22.1929 22.1929 11 36 11C49.8071 11 61 22.1929 61 36C61 49.8071 49.8071 61 36 61C22.1929 61 11 49.8071 11 36Z" fill="#60502F"/>
</g>
<path d="M34.4375 25.0625L26.625 31.3125H20.375V40.6875H26.625L34.4375 46.9375V25.0625Z" stroke="#AF8D51" stroke-width="2" stroke-linecap="round" stroke-linejoin="round"/>
<path d="M47.0469 24.9531C49.9761 27.8832 51.6217 31.8568 51.6217 36C51.6217 40.1432 49.9761 44.1168 47.0469 47.0469M41.5312 30.4688C42.9959 31.9338 43.8186 33.9206 43.8186 35.9922C43.8186 38.0638 42.9959 40.0506 41.5312 41.5156" stroke="#AF8D51" stroke-width="2" stroke-linecap="round" stroke-linejoin="round"/>
<defs>
<filter id="filter0_d" x="0" y="0" width="80" height="80" filterUnits="userSpaceOnUse" color-interpolation-filters="sRGB">
<feFlood flood-opacity="0" result="BackgroundImageFix"/>
<feColorMatrix in="SourceAlpha" type="matrix" values="0 0 0 0 0 0 0 0 0 0 0 0 0 0 0 0 0 0 127 0"/>
<feOffset dx="4" dy="4"/>
<feGaussianBlur stdDeviation="7.5"/>
<feColorMatrix type="matrix" values="0 0 0 0 0 0 0 0 0 0 0 0 0 0 0 0 0 0 0.25 0"/>
<feBlend mode="normal" in2="BackgroundImageFix" result="effect1_dropShadow"/>
<feBlend mode="normal" in="SourceGraphic" in2="effect1_dropShadow" result="shape"/>
</filter>
</defs>
</svg>
